<?xml version="1.0" encoding="UTF-8" standalone="no"?>
<!DOCTYPE svg PUBLIC "-//W3C//DTD SVG 1.1//EN" "http://www.w3.org/Graphics/SVG/1.1/DTD/svg11.dtd">
<svg xmlns="http://www.w3.org/2000/svg" version="1.1" viewBox="0 0 721 721" width="721.0pt" height="721.0pt" xmlns:xlink="http://www.w3.org/1999/xlink">
<defs>
<path d="M 0.00 0.00 L 721.00 0.00 L 721.00 721.00 L 0.00 721.00 L 0.00 0.00 Z M 351.92 63.84 C 343.20 63.96 334.68 64.27 326.08 65.92 C 274.71 72.57 225.17 92.44 184.07 124.07 C 175.20 131.30 166.15 137.91 158.24 146.24 C 150.44 154.39 141.61 161.95 134.91 170.92 C 131.44 175.43 127.82 179.84 124.37 184.37 C 115.73 196.35 107.93 208.85 100.79 221.78 C 85.88 250.44 75.03 281.04 69.96 313.00 C 69.05 320.00 68.00 326.98 67.18 333.99 C 66.34 340.93 66.82 347.88 65.90 354.81 C 65.29 359.35 65.20 363.80 65.83 368.34 C 66.95 376.48 66.44 384.66 67.41 392.83 C 70.84 420.95 77.50 448.58 88.14 474.86 C 93.59 487.45 99.57 499.77 106.27 511.74 C 111.44 520.21 116.51 528.61 122.43 536.56 C 131.68 549.88 142.38 561.74 153.98 573.02 C 175.82 596.14 201.60 613.55 229.55 628.43 C 240.03 633.55 250.82 638.07 261.71 642.22 C 285.02 650.75 309.44 656.34 334.11 658.97 C 342.12 659.92 350.18 659.46 358.18 660.57 C 366.75 661.63 374.46 659.76 383.03 659.64 C 393.08 659.47 402.90 657.94 412.83 656.54 C 438.92 652.00 464.44 644.62 488.52 633.51 C 516.43 620.97 542.23 603.38 565.03 583.04 C 575.46 572.90 586.39 562.69 595.24 551.23 C 608.51 535.33 619.72 517.67 629.36 499.36 C 638.55 482.13 645.45 464.02 651.24 445.40 C 657.59 422.59 662.13 398.71 662.53 374.99 C 662.66 371.58 663.19 368.22 663.48 364.83 C 664.09 358.19 662.36 351.77 662.40 345.03 C 662.34 331.79 659.93 318.25 657.65 305.19 C 652.56 277.89 643.04 251.88 631.11 226.87 C 620.47 207.07 608.54 188.20 593.99 171.01 C 589.98 166.03 585.81 161.25 581.20 156.80 C 573.36 149.15 566.33 141.07 557.65 134.33 C 548.23 126.26 538.12 119.14 527.95 112.06 C 504.11 96.84 477.96 84.09 450.78 76.13 C 432.13 70.19 412.23 66.72 392.82 64.51 C 384.90 63.76 376.95 64.08 369.04 63.01 C 363.16 62.21 357.73 63.48 351.92 63.84 Z" id="p0" />
<path d="M 369.04 63.01 C 376.95 64.08 384.90 63.76 392.82 64.51 C 412.23 66.72 432.13 70.19 450.78 76.13 C 477.96 84.09 504.11 96.84 527.95 112.06 C 538.12 119.14 548.23 126.26 557.65 134.33 C 566.33 141.07 573.36 149.15 581.20 156.80 C 585.81 161.25 589.98 166.03 593.99 171.01 C 608.54 188.20 620.47 207.07 631.11 226.87 C 643.04 251.88 652.56 277.89 657.65 305.19 C 659.93 318.25 662.34 331.79 662.40 345.03 C 662.36 351.77 664.09 358.19 663.48 364.83 C 663.19 368.22 662.66 371.58 662.53 374.99 C 662.13 398.71 657.59 422.59 651.24 445.40 C 645.45 464.02 638.55 482.13 629.36 499.36 C 619.72 517.67 608.51 535.33 595.24 551.23 C 586.39 562.69 575.46 572.90 565.03 583.04 C 542.23 603.38 516.43 620.97 488.52 633.51 C 464.44 644.62 438.92 652.00 412.83 656.54 C 402.90 657.94 393.08 659.47 383.03 659.64 C 374.46 659.76 366.75 661.63 358.18 660.57 C 350.18 659.46 342.12 659.92 334.11 658.97 C 309.44 656.34 285.02 650.75 261.71 642.22 C 250.82 638.07 240.03 633.55 229.55 628.43 C 201.60 613.55 175.82 596.14 153.98 573.02 C 142.38 561.74 131.68 549.88 122.43 536.56 C 116.51 528.61 111.44 520.21 106.27 511.74 C 99.57 499.77 93.59 487.45 88.14 474.86 C 77.50 448.58 70.84 420.95 67.41 392.83 C 66.44 384.66 66.95 376.48 65.83 368.34 C 65.20 363.80 65.29 359.35 65.90 354.81 C 66.82 347.88 66.34 340.93 67.18 333.99 C 68.00 326.98 69.05 320.00 69.96 313.00 C 75.03 281.04 85.88 250.44 100.79 221.78 C 107.93 208.85 115.73 196.35 124.37 184.37 C 127.82 179.84 131.44 175.43 134.91 170.92 C 141.61 161.95 150.44 154.39 158.24 146.24 C 166.15 137.91 175.20 131.30 184.07 124.07 C 225.17 92.44 274.71 72.57 326.08 65.92 C 334.68 64.27 343.20 63.96 351.92 63.84 C 357.73 63.48 363.16 62.21 369.04 63.01 Z M 277.98 177.87 C 292.32 178.25 306.65 177.08 321.00 177.79 C 348.91 178.29 376.53 180.68 403.72 187.28 C 416.12 190.07 428.23 193.99 439.83 199.20 C 448.56 203.40 456.74 208.49 463.47 215.54 C 474.48 226.98 483.92 239.80 489.00 255.00 C 490.98 259.98 491.46 265.53 493.68 270.37 C 496.42 274.28 501.05 277.07 504.79 279.98 C 504.60 265.96 504.36 251.98 504.84 237.96 C 504.99 232.44 506.24 226.71 505.69 221.22 C 504.78 217.14 501.38 213.41 498.70 210.32 C 483.03 193.41 462.88 180.36 441.89 171.02 C 429.66 165.50 417.07 162.01 404.05 158.90 C 376.11 152.85 347.05 154.01 319.48 161.39 C 305.40 165.48 290.60 170.30 277.98 177.87 Z M 287.81 181.11 C 290.70 187.45 294.19 193.42 297.42 199.58 C 309.92 223.08 322.50 246.54 334.87 270.11 C 336.65 273.39 338.19 276.46 341.45 278.53 C 346.25 281.52 351.56 283.60 356.35 286.64 C 365.93 292.21 374.41 299.30 383.79 305.16 C 380.03 296.49 375.12 288.71 370.48 280.52 C 353.95 251.38 337.39 222.27 320.87 193.12 C 318.82 189.60 317.06 185.71 314.50 182.53 C 313.37 180.82 310.87 181.16 309.07 180.97 C 301.99 180.92 294.89 180.95 287.81 181.11 Z M 317.98 181.05 C 324.21 192.98 331.09 204.59 337.65 216.36 C 353.68 244.29 369.84 272.16 385.95 300.05 C 388.93 305.12 391.28 310.32 395.65 314.34 C 400.52 318.84 406.31 322.56 412.01 325.93 C 384.68 278.63 356.59 230.92 329.31 183.67 C 328.57 182.60 328.07 181.83 326.68 181.69 C 323.83 181.18 320.86 181.17 317.98 181.05 Z M 201.86 202.28 C 209.55 218.22 218.53 233.57 226.72 249.26 C 227.87 251.41 228.99 253.72 230.52 255.62 C 233.89 256.31 237.64 255.69 241.06 255.54 C 251.01 254.81 261.00 255.32 270.79 257.24 C 273.76 257.89 276.98 258.78 279.53 260.48 C 281.99 262.22 283.75 265.20 285.48 267.63 C 289.57 267.75 293.64 267.67 297.72 267.58 C 282.27 239.98 266.51 212.49 250.56 185.18 C 243.77 185.45 236.88 187.57 230.35 189.35 C 220.16 192.42 210.36 195.61 201.86 202.28 Z M 373.78 186.02 C 375.06 188.43 376.40 190.81 377.86 193.12 C 392.43 215.93 406.70 238.94 421.24 261.76 C 436.28 285.18 451.13 308.73 466.24 332.11 C 471.42 329.84 475.57 327.17 479.41 322.98 C 475.95 316.74 471.90 310.91 468.13 304.87 C 446.38 270.62 424.63 236.36 402.93 202.08 C 400.59 198.48 398.50 194.53 395.69 191.28 C 394.32 189.68 392.33 189.22 390.38 188.68 C 384.93 187.39 379.34 186.61 373.78 186.02 Z M 503.06 436.88 C 501.61 448.12 501.18 460.79 505.50 471.50 C 508.10 478.07 514.14 481.20 520.35 483.65 C 527.98 486.69 536.37 486.83 544.11 484.12 C 553.70 480.84 561.71 473.85 568.38 466.40 C 585.05 446.41 593.92 422.63 599.43 397.46 C 602.28 382.58 603.07 366.77 600.25 351.82 C 598.12 341.58 593.81 332.37 589.18 323.08 C 575.28 295.58 557.42 269.97 537.50 246.51 C 531.01 239.26 524.31 231.37 516.52 225.60 C 516.07 233.11 515.11 240.48 515.19 248.00 C 515.19 264.34 516.04 280.66 516.13 297.00 C 516.48 318.08 517.02 338.48 514.36 359.55 C 511.61 385.46 505.86 411.01 503.06 436.88 Z M 212.93 295.97 C 212.00 289.33 208.96 281.79 210.21 275.18 C 210.93 271.03 215.42 269.16 218.99 268.05 C 236.37 263.48 253.92 264.50 271.11 263.68 C 264.18 262.03 257.11 261.39 250.00 261.49 C 236.96 261.70 224.40 262.56 212.04 267.07 C 210.06 267.99 206.60 269.40 206.86 272.05 C 206.92 280.23 209.44 288.61 212.93 295.97 Z M 201.75 281.87 C 182.66 281.38 164.89 291.58 153.68 306.68 C 147.69 314.92 142.80 323.95 139.67 333.67 C 133.89 351.67 131.41 370.73 130.46 389.57 C 129.42 405.09 130.70 420.97 132.77 436.38 C 135.50 452.01 139.26 467.00 146.78 481.09 C 152.43 492.80 161.06 503.99 172.49 510.52 C 176.41 512.85 180.70 514.10 185.12 515.03 C 183.44 506.41 180.48 498.18 178.38 489.62 C 174.63 474.51 171.55 458.92 170.64 443.35 C 169.61 429.97 170.18 416.72 173.46 403.66 C 175.95 393.27 181.14 383.28 188.60 375.59 C 197.78 366.24 211.35 361.12 224.31 360.61 C 226.95 360.44 229.58 360.27 232.22 360.08 C 232.34 351.18 231.72 343.00 234.11 334.29 C 234.86 331.82 235.75 329.41 236.70 327.01 C 236.39 329.27 236.03 331.52 235.68 333.77 C 233.99 342.80 235.14 351.66 237.50 360.43 C 245.13 361.66 252.65 362.47 260.01 364.99 C 279.90 371.31 296.46 384.43 310.07 399.95 C 316.74 407.70 322.74 416.07 328.43 424.57 C 336.85 437.22 343.85 450.45 351.39 463.61 C 361.71 481.39 370.98 498.82 384.05 514.96 C 392.79 525.55 403.60 533.99 416.80 538.20 C 427.06 541.21 438.34 541.43 448.64 538.45 C 454.95 536.45 460.89 533.08 466.27 529.26 C 480.39 518.32 490.23 503.87 497.82 487.88 C 499.85 483.47 497.63 480.11 495.97 476.10 C 490.78 465.43 491.29 452.55 491.80 440.96 C 493.98 414.44 500.46 387.12 503.66 360.80 C 504.23 356.09 505.17 351.01 504.58 346.28 C 504.49 344.96 502.76 343.97 501.80 343.22 C 496.39 339.74 490.72 336.64 484.99 333.74 C 482.31 335.31 479.65 336.92 476.98 338.50 C 470.59 342.54 463.43 344.15 456.00 344.97 C 444.74 346.24 432.25 346.56 421.48 342.56 C 412.56 339.20 404.24 333.96 396.40 328.59 C 378.74 316.00 362.56 301.57 343.45 291.56 C 327.48 283.18 309.10 278.04 291.00 278.51 C 288.17 278.62 285.18 278.69 282.44 279.46 C 281.20 280.92 280.35 282.82 279.52 284.54 C 274.50 295.83 267.08 306.60 257.54 314.55 C 251.95 319.05 245.32 322.76 238.04 323.33 C 231.41 323.95 224.67 321.80 219.81 317.21 C 214.72 312.44 210.52 306.64 207.74 300.23 C 205.17 294.42 203.50 287.97 201.75 281.87 Z M 182.44 453.00 C 183.35 465.29 186.17 476.88 189.18 488.81 C 191.12 496.05 192.86 503.72 196.87 510.14 C 200.32 515.71 205.10 519.88 210.49 523.52 C 219.82 529.74 229.18 535.79 239.28 540.71 C 255.33 548.98 272.17 555.49 289.90 559.07 C 301.69 561.39 313.97 563.37 326.00 563.25 C 342.67 563.23 359.36 561.32 375.31 556.34 C 384.84 553.25 394.74 550.11 403.41 545.04 C 398.13 540.94 392.35 538.12 387.40 533.62 C 380.37 527.27 374.02 520.17 368.62 512.38 C 356.14 495.13 345.89 475.73 335.45 457.14 C 325.80 439.62 314.97 422.29 301.84 407.16 C 293.77 397.27 283.91 388.49 272.73 382.27 C 257.82 374.30 240.96 369.87 224.00 371.22 C 215.24 372.11 206.89 374.30 199.91 379.89 C 192.33 385.61 187.66 393.84 184.79 402.76 C 179.97 418.76 180.21 436.56 182.44 453.00 Z" id="p1" />
<path d="M 404.05 158.90 C 417.07 162.01 429.66 165.50 441.89 171.02 C 462.88 180.36 483.03 193.41 498.70 210.32 C 501.38 213.41 504.78 217.14 505.69 221.22 C 506.24 226.71 504.99 232.44 504.84 237.96 C 504.36 251.98 504.60 265.96 504.79 279.98 C 501.05 277.07 496.42 274.28 493.68 270.37 C 491.46 265.53 490.98 259.98 489.00 255.00 C 483.92 239.80 474.48 226.98 463.47 215.54 C 456.74 208.49 448.56 203.40 439.83 199.20 C 428.23 193.99 416.12 190.07 403.72 187.28 C 376.53 180.68 348.91 178.29 321.00 177.79 C 306.65 177.08 292.32 178.25 277.98 177.87 C 290.60 170.30 305.40 165.48 319.48 161.39 C 347.05 154.01 376.11 152.85 404.05 158.90 Z" id="p2" />
<path d="M 287.81 181.11 C 294.89 180.95 301.99 180.92 309.07 180.97 C 310.87 181.16 313.37 180.82 314.50 182.53 C 317.06 185.71 318.82 189.60 320.87 193.12 C 337.39 222.27 353.95 251.38 370.48 280.52 C 375.12 288.71 380.03 296.49 383.79 305.16 C 374.41 299.30 365.93 292.21 356.35 286.64 C 351.56 283.60 346.25 281.52 341.45 278.53 C 338.19 276.46 336.65 273.39 334.87 270.11 C 322.50 246.54 309.92 223.08 297.42 199.58 C 294.19 193.42 290.70 187.45 287.81 181.11 Z" id="p3" />
<path d="M 317.98 181.05 C 320.86 181.17 323.83 181.18 326.68 181.69 C 328.07 181.83 328.57 182.60 329.31 183.67 C 356.59 230.92 384.68 278.63 412.01 325.93 C 406.31 322.56 400.52 318.84 395.65 314.34 C 391.28 310.32 388.93 305.12 385.95 300.05 C 369.84 272.16 353.68 244.29 337.65 216.36 C 331.09 204.59 324.21 192.98 317.98 181.05 Z" id="p4" />
<path d="M 250.56 185.18 C 266.51 212.49 282.27 239.98 297.72 267.58 C 293.64 267.67 289.57 267.75 285.48 267.63 C 283.75 265.20 281.99 262.22 279.53 260.48 C 276.98 258.78 273.76 257.89 270.79 257.24 C 261.00 255.32 251.01 254.81 241.06 255.54 C 237.64 255.69 233.89 256.31 230.52 255.62 C 228.99 253.72 227.87 251.41 226.72 249.26 C 218.53 233.57 209.55 218.22 201.86 202.28 C 210.36 195.61 220.16 192.42 230.35 189.35 C 236.88 187.57 243.77 185.45 250.56 185.18 Z" id="p5" />
<path d="M 373.78 186.02 C 379.34 186.61 384.93 187.39 390.38 188.68 C 392.33 189.22 394.32 189.68 395.69 191.28 C 398.50 194.53 400.59 198.48 402.93 202.08 C 424.63 236.36 446.38 270.62 468.13 304.87 C 471.90 310.91 475.95 316.74 479.41 322.98 C 475.57 327.17 471.42 329.84 466.24 332.11 C 451.13 308.73 436.28 285.18 421.24 261.76 C 406.70 238.94 392.43 215.93 377.86 193.12 C 376.40 190.81 375.06 188.43 373.78 186.02 Z" id="p6" />
<path d="M 516.52 225.60 C 524.31 231.37 531.01 239.26 537.50 246.51 C 557.42 269.97 575.28 295.58 589.18 323.08 C 587.50 334.46 585.02 345.87 581.89 356.94 C 576.86 374.00 569.17 390.40 558.98 404.99 C 554.18 411.35 549.61 418.52 543.52 423.52 C 535.80 430.14 527.39 436.51 517.53 439.50 C 513.15 440.84 508.77 441.27 504.24 441.72 C 503.83 440.11 503.41 438.50 503.06 436.88 C 505.86 411.01 511.61 385.46 514.36 359.55 C 517.02 338.48 516.48 318.08 516.13 297.00 C 516.04 280.66 515.19 264.34 515.19 248.00 C 515.11 240.48 516.07 233.11 516.52 225.60 Z" id="p7" />
<path d="M 250.00 261.49 C 257.11 261.39 264.18 262.03 271.11 263.68 C 253.92 264.50 236.37 263.48 218.99 268.05 C 215.42 269.16 210.93 271.03 210.21 275.18 C 208.96 281.79 212.00 289.33 212.93 295.97 C 209.44 288.61 206.92 280.23 206.86 272.05 C 206.60 269.40 210.06 267.99 212.04 267.07 C 224.40 262.56 236.96 261.70 250.00 261.49 Z" id="p8" />
<path d="M 282.44 279.46 C 285.18 278.69 288.17 278.62 291.00 278.51 C 309.10 278.04 327.48 283.18 343.45 291.56 C 362.56 301.57 378.74 316.00 396.40 328.59 C 404.24 333.96 412.56 339.20 421.48 342.56 C 432.25 346.56 444.74 346.24 456.00 344.97 C 463.43 344.15 470.59 342.54 476.98 338.50 C 482.67 340.73 487.78 343.85 492.99 346.99 C 494.98 348.42 497.06 349.14 496.85 352.03 C 496.65 358.96 495.56 365.92 494.76 372.81 C 491.62 393.50 488.61 414.19 484.72 434.75 C 483.46 441.19 482.24 448.39 479.24 454.26 C 472.44 467.35 457.42 475.13 443.04 475.94 C 434.85 476.27 426.76 476.39 419.22 472.73 C 411.18 468.78 403.96 462.61 397.15 456.84 C 391.93 452.57 387.41 448.12 383.09 442.92 C 377.83 437.15 372.28 431.72 367.45 425.56 C 349.79 405.08 333.12 384.01 314.78 364.22 C 310.77 360.22 306.39 356.58 302.02 352.97 C 293.25 346.09 282.52 341.35 271.92 338.07 C 265.21 336.03 258.07 334.13 251.04 333.98 C 245.92 333.86 240.80 333.98 235.68 333.77 C 236.03 331.52 236.39 329.27 236.70 327.01 C 235.75 329.41 234.86 331.82 234.11 334.29 C 227.86 334.86 221.94 335.14 215.86 336.84 C 203.64 340.28 192.07 346.02 182.89 354.89 C 174.80 362.95 170.24 372.80 166.34 383.36 C 161.87 396.06 159.26 409.52 158.95 422.99 C 158.95 432.40 158.65 441.70 159.67 451.07 C 160.46 463.19 163.70 473.60 160.96 485.81 C 156.15 484.46 151.47 482.79 146.78 481.09 C 139.26 467.00 135.50 452.01 132.77 436.38 C 130.70 420.97 129.42 405.09 130.46 389.57 C 131.41 370.73 133.89 351.67 139.67 333.67 C 142.80 323.95 147.69 314.92 153.68 306.68 C 164.89 291.58 182.66 281.38 201.75 281.87 C 203.50 287.97 205.17 294.42 207.74 300.23 C 210.52 306.64 214.72 312.44 219.81 317.21 C 224.67 321.80 231.41 323.95 238.04 323.33 C 245.32 322.76 251.95 319.05 257.54 314.55 C 267.08 306.60 274.50 295.83 279.52 284.54 C 280.35 282.82 281.20 280.92 282.44 279.46 Z M 300.38 287.19 C 300.19 288.48 300.03 289.78 299.88 291.08 C 301.94 291.14 304.01 291.19 306.07 291.21 C 305.98 289.41 305.88 287.61 305.78 285.82 C 303.96 286.25 302.17 286.65 300.38 287.19 Z M 187.97 292.94 C 189.62 292.94 191.28 292.94 192.93 292.93 C 193.33 291.64 193.72 290.35 194.12 289.05 C 192.08 288.20 190.77 286.98 188.54 288.20 C 188.26 289.75 188.13 291.36 187.97 292.94 Z M 171.03 298.70 C 171.96 299.47 172.89 300.24 173.82 301.01 C 174.79 300.53 175.77 300.06 176.75 299.58 C 176.76 298.41 176.77 297.24 176.76 296.07 C 175.59 295.76 174.45 295.46 173.24 295.33 C 172.43 296.38 171.73 297.57 171.03 298.70 Z M 288.77 298.81 C 288.71 300.23 288.65 301.65 288.60 303.07 C 290.22 303.20 291.85 303.32 293.47 303.44 C 293.41 301.84 293.35 300.23 293.28 298.63 C 291.78 298.68 290.28 298.74 288.77 298.81 Z M 322.15 304.08 C 322.05 305.31 322.04 306.53 322.11 307.74 C 322.95 308.83 324.08 309.71 325.10 310.63 C 326.30 308.76 327.46 306.88 328.58 304.96 C 326.45 304.45 324.34 304.08 322.15 304.08 Z M 194.53 305.44 C 192.84 306.23 192.74 308.76 194.11 309.90 C 195.68 311.59 198.19 310.95 198.95 308.78 C 200.15 306.33 196.54 303.64 194.53 305.44 Z M 172.77 313.00 C 173.81 313.40 174.87 313.73 175.94 313.97 C 177.04 313.45 178.08 312.73 179.10 312.07 C 178.60 311.08 178.08 310.10 177.55 309.13 C 176.45 309.03 175.35 308.99 174.24 309.01 C 173.63 310.31 173.20 311.64 172.77 313.00 Z M 189.72 319.03 C 189.02 317.68 188.32 316.33 187.57 315.00 C 186.43 315.40 185.31 315.84 184.25 316.42 C 183.80 318.11 184.38 319.52 185.12 321.02 C 186.81 320.64 188.19 319.81 189.72 319.03 Z M 290.84 319.94 C 291.57 320.99 292.34 322.00 293.10 323.01 C 294.52 322.05 295.95 321.08 297.36 320.11 C 296.29 319.03 295.19 317.81 293.94 316.94 C 292.09 317.17 291.79 318.61 290.84 319.94 Z M 307.98 323.81 C 309.71 323.86 311.44 323.89 313.17 323.90 C 312.83 322.13 312.49 320.36 312.00 318.62 C 310.87 318.90 309.78 319.27 308.73 319.73 C 308.15 320.95 308.18 322.48 307.98 323.81 Z" id="p9" />
<path d="M 305.78 285.82 C 305.88 287.61 305.98 289.41 306.07 291.21 C 304.01 291.19 301.94 291.14 299.88 291.08 C 300.03 289.78 300.19 288.48 300.38 287.19 C 302.17 286.65 303.96 286.25 305.78 285.82 Z" id="p10" />
<path d="M 188.54 288.20 C 190.77 286.98 192.08 288.20 194.12 289.05 C 193.72 290.35 193.33 291.64 192.93 292.93 C 191.28 292.94 189.62 292.94 187.97 292.94 C 188.13 291.36 188.26 289.75 188.54 288.20 Z" id="p11" />
<path d="M 173.24 295.33 C 174.45 295.46 175.59 295.76 176.76 296.07 C 176.77 297.24 176.76 298.41 176.75 299.58 C 175.77 300.06 174.79 300.53 173.82 301.01 C 172.89 300.24 171.96 299.47 171.03 298.70 C 171.73 297.57 172.43 296.38 173.24 295.33 Z" id="p12" />
<path d="M 288.77 298.81 C 290.28 298.74 291.78 298.68 293.28 298.63 C 293.35 300.23 293.41 301.84 293.47 303.44 C 291.85 303.32 290.22 303.20 288.60 303.07 C 288.65 301.65 288.71 300.23 288.77 298.81 Z" id="p13" />
<path d="M 328.58 304.96 C 327.46 306.88 326.30 308.76 325.10 310.63 C 324.08 309.71 322.95 308.83 322.11 307.74 C 322.04 306.53 322.05 305.31 322.15 304.08 C 324.34 304.08 326.45 304.45 328.58 304.96 Z" id="p14" />
<path d="M 194.53 305.44 C 196.54 303.64 200.15 306.33 198.95 308.78 C 198.19 310.95 195.68 311.59 194.11 309.90 C 192.74 308.76 192.84 306.23 194.53 305.44 Z" id="p15" />
<path d="M 174.24 309.01 C 175.35 308.99 176.45 309.03 177.55 309.13 C 178.08 310.10 178.60 311.08 179.10 312.07 C 178.08 312.73 177.04 313.45 175.94 313.97 C 174.87 313.73 173.81 313.40 172.77 313.00 C 173.20 311.64 173.63 310.31 174.24 309.01 Z" id="p16" />
<path d="M 187.57 315.00 C 188.32 316.33 189.02 317.68 189.72 319.03 C 188.19 319.81 186.81 320.64 185.12 321.02 C 184.38 319.52 183.80 318.11 184.25 316.42 C 185.31 315.84 186.43 315.40 187.57 315.00 Z" id="p17" />
<path d="M 293.94 316.94 C 295.19 317.81 296.29 319.03 297.36 320.11 C 295.95 321.08 294.52 322.05 293.10 323.01 C 292.34 322.00 291.57 320.99 290.84 319.94 C 291.79 318.61 292.09 317.17 293.94 316.94 Z" id="p18" />
<path d="M 312.00 318.62 C 312.49 320.36 312.83 322.13 313.17 323.90 C 311.44 323.89 309.71 323.86 307.98 323.81 C 308.18 322.48 308.15 320.95 308.73 319.73 C 309.78 319.27 310.87 318.90 312.00 318.62 Z" id="p19" />
<path d="M 589.18 323.08 C 593.81 332.37 598.12 341.58 600.25 351.82 C 603.07 366.77 602.28 382.58 599.43 397.46 C 593.92 422.63 585.05 446.41 568.38 466.40 C 561.71 473.85 553.70 480.84 544.11 484.12 C 536.37 486.83 527.98 486.69 520.35 483.65 C 514.14 481.20 508.10 478.07 505.50 471.50 C 501.18 460.79 501.61 448.12 503.06 436.88 C 503.41 438.50 503.83 440.11 504.24 441.72 C 508.77 441.27 513.15 440.84 517.53 439.50 C 527.39 436.51 535.80 430.14 543.52 423.52 C 549.61 418.52 554.18 411.35 558.98 404.99 C 569.17 390.40 576.86 374.00 581.89 356.94 C 585.02 345.87 587.50 334.46 589.18 323.08 Z" id="p20" />
<path d="M 234.11 334.29 C 231.72 343.00 232.34 351.18 232.22 360.08 C 229.58 360.27 226.95 360.44 224.31 360.61 C 211.35 361.12 197.78 366.24 188.60 375.59 C 181.14 383.28 175.95 393.27 173.46 403.66 C 170.18 416.72 169.61 429.97 170.64 443.35 C 171.55 458.92 174.63 474.51 178.38 489.62 C 180.48 498.18 183.44 506.41 185.12 515.03 C 180.70 514.10 176.41 512.85 172.49 510.52 C 161.06 503.99 152.43 492.80 146.78 481.09 C 151.47 482.79 156.15 484.46 160.96 485.81 C 163.70 473.60 160.46 463.19 159.67 451.07 C 158.65 441.70 158.95 432.40 158.95 422.99 C 159.26 409.52 161.87 396.06 166.34 383.36 C 170.24 372.80 174.80 362.95 182.89 354.89 C 192.07 346.02 203.64 340.28 215.86 336.84 C 221.94 335.14 227.86 334.86 234.11 334.29 Z" id="p21" />
<path d="M 235.68 333.77 C 240.80 333.98 245.92 333.86 251.04 333.98 C 258.07 334.13 265.21 336.03 271.92 338.07 C 282.52 341.35 293.25 346.09 302.02 352.97 C 306.39 356.58 310.77 360.22 314.78 364.22 C 333.12 384.01 349.79 405.08 367.45 425.56 C 372.28 431.72 377.83 437.15 383.09 442.92 C 387.41 448.12 391.93 452.57 397.15 456.84 C 403.96 462.61 411.18 468.78 419.22 472.73 C 426.76 476.39 434.85 476.27 443.04 475.94 C 457.42 475.13 472.44 467.35 479.24 454.26 C 482.24 448.39 483.46 441.19 484.72 434.75 C 488.61 414.19 491.62 393.50 494.76 372.81 C 495.56 365.92 496.65 358.96 496.85 352.03 C 497.06 349.14 494.98 348.42 492.99 346.99 C 487.78 343.85 482.67 340.73 476.98 338.50 C 479.65 336.92 482.31 335.31 484.99 333.74 C 490.72 336.64 496.39 339.74 501.80 343.22 C 502.76 343.97 504.49 344.96 504.58 346.28 C 505.17 351.01 504.23 356.09 503.66 360.80 C 500.46 387.12 493.98 414.44 491.80 440.96 C 491.29 452.55 490.78 465.43 495.97 476.10 C 497.63 480.11 499.85 483.47 497.82 487.88 C 490.23 503.87 480.39 518.32 466.27 529.26 C 460.89 533.08 454.95 536.45 448.64 538.45 C 438.34 541.43 427.06 541.21 416.80 538.20 C 403.60 533.99 392.79 525.55 384.05 514.96 C 370.98 498.82 361.71 481.39 351.39 463.61 C 343.85 450.45 336.85 437.22 328.43 424.57 C 322.74 416.07 316.74 407.70 310.07 399.95 C 296.46 384.43 279.90 371.31 260.01 364.99 C 252.65 362.47 245.13 361.66 237.50 360.43 C 235.14 351.66 233.99 342.80 235.68 333.77 Z" id="p22" />
<path d="M 224.00 371.22 C 240.96 369.87 257.82 374.30 272.73 382.27 C 283.91 388.49 293.77 397.27 301.84 407.16 C 314.97 422.29 325.80 439.62 335.45 457.14 C 333.86 460.23 332.03 463.11 329.78 465.76 C 325.51 470.77 322.05 475.75 316.93 479.93 C 311.12 484.68 304.86 489.05 297.86 491.84 C 291.88 494.23 285.50 496.04 279.16 497.18 C 273.02 498.26 267.19 497.96 261.00 498.00 C 254.87 497.98 249.07 498.29 243.03 497.01 C 233.72 495.04 225.07 491.07 217.21 485.77 C 209.70 480.66 202.75 475.09 197.04 467.97 C 192.55 462.43 188.57 456.90 182.44 453.00 C 180.21 436.56 179.97 418.76 184.79 402.76 C 187.66 393.84 192.33 385.61 199.91 379.89 C 206.89 374.30 215.24 372.11 224.00 371.22 Z" id="p23" />
<path d="M 182.44 453.00 C 188.57 456.90 192.55 462.43 197.04 467.97 C 202.75 475.09 209.70 480.66 217.21 485.77 C 225.07 491.07 233.72 495.04 243.03 497.01 C 249.07 498.29 254.87 497.98 261.00 498.00 C 267.19 497.96 273.02 498.26 279.16 497.18 C 285.50 496.04 291.88 494.23 297.86 491.84 C 304.86 489.05 311.12 484.68 316.93 479.93 C 322.05 475.75 325.51 470.77 329.78 465.76 C 332.03 463.11 333.86 460.23 335.45 457.14 C 345.89 475.73 356.14 495.13 368.62 512.38 C 374.02 520.17 380.37 527.27 387.40 533.62 C 392.35 538.12 398.13 540.94 403.41 545.04 C 394.74 550.11 384.84 553.25 375.31 556.34 C 359.36 561.32 342.67 563.23 326.00 563.25 C 313.97 563.37 301.69 561.39 289.90 559.07 C 272.17 555.49 255.33 548.98 239.28 540.71 C 229.18 535.79 219.82 529.74 210.49 523.52 C 205.10 519.88 200.32 515.71 196.87 510.14 C 192.86 503.72 191.12 496.05 189.18 488.81 C 186.17 476.88 183.35 465.29 182.44 453.00 Z" id="p24" />
</defs>
<g stroke-width="10pt">
<use stroke="#ffffff" xlink:href="#p0" />
<use stroke="#1d1d1b" xlink:href="#p1" />
<use stroke="#ffffff" xlink:href="#p2" />
<use stroke="#ffffff" xlink:href="#p3" />
<use stroke="#ffffff" xlink:href="#p4" />
<use stroke="#ffffff" xlink:href="#p5" />
<use stroke="#ffffff" xlink:href="#p6" />
<use stroke="#ffffff" xlink:href="#p7" />
<use stroke="#ffffff" xlink:href="#p8" />
<use stroke="#ffffff" xlink:href="#p9" />
<use stroke="#1d1d1b" xlink:href="#p10" />
<use stroke="#1d1d1b" xlink:href="#p11" />
<use stroke="#1d1d1b" xlink:href="#p12" />
<use stroke="#1d1d1b" xlink:href="#p13" />
<use stroke="#1d1d1b" xlink:href="#p14" />
<use stroke="#1d1d1b" xlink:href="#p15" />
<use stroke="#1d1d1b" xlink:href="#p16" />
<use stroke="#1d1d1b" xlink:href="#p17" />
<use stroke="#1d1d1b" xlink:href="#p18" />
<use stroke="#1d1d1b" xlink:href="#p19" />
<use stroke="#d2d2d2" xlink:href="#p20" />
<use stroke="#d2d2d2" xlink:href="#p21" />
<use stroke="#d2d2d2" xlink:href="#p22" />
<use stroke="#ffffff" xlink:href="#p23" />
<use stroke="#d2d2d2" xlink:href="#p24" />
</g>
<g>
<use fill="#ffffff" xlink:href="#p0" />
<use fill="#1d1d1b" xlink:href="#p1" />
<use fill="#ffffff" xlink:href="#p2" />
<use fill="#ffffff" xlink:href="#p3" />
<use fill="#ffffff" xlink:href="#p4" />
<use fill="#ffffff" xlink:href="#p5" />
<use fill="#ffffff" xlink:href="#p6" />
<use fill="#ffffff" xlink:href="#p7" />
<use fill="#ffffff" xlink:href="#p8" />
<use fill="#ffffff" xlink:href="#p9" />
<use fill="#1d1d1b" xlink:href="#p10" />
<use fill="#1d1d1b" xlink:href="#p11" />
<use fill="#1d1d1b" xlink:href="#p12" />
<use fill="#1d1d1b" xlink:href="#p13" />
<use fill="#1d1d1b" xlink:href="#p14" />
<use fill="#1d1d1b" xlink:href="#p15" />
<use fill="#1d1d1b" xlink:href="#p16" />
<use fill="#1d1d1b" xlink:href="#p17" />
<use fill="#1d1d1b" xlink:href="#p18" />
<use fill="#1d1d1b" xlink:href="#p19" />
<use fill="#d2d2d2" xlink:href="#p20" />
<use fill="#d2d2d2" xlink:href="#p21" />
<use fill="#d2d2d2" xlink:href="#p22" />
<use fill="#ffffff" xlink:href="#p23" />
<use fill="#d2d2d2" xlink:href="#p24" />
</g>
</svg>